<?xml version="1.0" encoding="UTF-8"?>
<svg xmlns="http://www.w3.org/2000/svg" xmlns:xlink="http://www.w3.org/1999/xlink" width="37.5pt" height="37.499999pt" viewBox="0 0 37.5 37.499999" version="1.2">
<defs>
<clipPath id="clip1">
  <path d="M 11.25 12 L 26.25 12 L 26.25 25.265625 L 11.25 25.265625 Z M 11.25 12 "/>
</clipPath>
</defs>
<g id="surface1">
<g clip-path="url(#clip1)" clip-rule="nonzero">
<path style=" stroke:none;fill-rule:nonzero;fill:rgb(42.349243%,86.669922%,66.668701%);fill-opacity:1;" d="M 23.429688 12.40625 C 20.792969 15.175781 18.15625 17.945312 15.519531 20.714844 C 15.769531 20.714844 16.015625 20.714844 16.265625 20.714844 C 15.5 20 14.734375 19.285156 13.96875 18.570312 C 13.769531 18.382812 13.417969 18.355469 13.222656 18.570312 C 12.644531 19.199219 12.0625 19.832031 11.484375 20.464844 C 11.296875 20.671875 11.269531 20.992188 11.484375 21.195312 C 12.863281 22.484375 14.246094 23.769531 15.625 25.058594 C 15.828125 25.25 16.171875 25.269531 16.371094 25.058594 C 19.589844 21.683594 22.804688 18.304688 26.019531 14.925781 C 26.214844 14.722656 26.230469 14.398438 26.019531 14.195312 C 25.40625 13.601562 24.789062 13.003906 24.175781 12.40625 C 23.691406 11.9375 22.945312 12.667969 23.429688 13.136719 C 24.042969 13.734375 24.660156 14.328125 25.273438 14.925781 C 25.273438 14.683594 25.273438 14.441406 25.273438 14.195312 C 22.058594 17.574219 18.84375 20.953125 15.625 24.332031 C 15.875 24.332031 16.125 24.332031 16.371094 24.332031 C 14.992188 23.042969 13.609375 21.753906 12.230469 20.464844 C 12.230469 20.707031 12.230469 20.949219 12.230469 21.195312 C 12.808594 20.5625 13.390625 19.929688 13.96875 19.296875 C 13.71875 19.296875 13.472656 19.296875 13.222656 19.296875 C 13.988281 20.011719 14.753906 20.726562 15.519531 21.441406 C 15.722656 21.632812 16.066406 21.652344 16.265625 21.441406 C 18.902344 18.675781 21.539062 15.90625 24.175781 13.136719 C 24.636719 12.652344 23.894531 11.917969 23.429688 12.40625 Z M 23.429688 12.40625 "/>
</g>
</g>
</svg>
