<?xml version="1.0" encoding="UTF-8"?>
<svg xmlns="http://www.w3.org/2000/svg" xmlns:xlink="http://www.w3.org/1999/xlink" width="112.5pt" height="112.499997pt" viewBox="0 0 112.5 112.499997" version="1.2">
<defs>
<clipPath id="clip1">
  <path d="M 28.292969 43 L 84.542969 43 L 84.542969 79.945312 L 28.292969 79.945312 Z M 28.292969 43 "/>
</clipPath>
<clipPath id="clip2">
  <path d="M 41 32.695312 L 46 32.695312 L 46 40 L 41 40 Z M 41 32.695312 "/>
</clipPath>
</defs>
<g id="surface1">
<path style=" stroke:none;fill-rule:nonzero;fill:rgb(67.449951%,63.919067%,95.289612%);fill-opacity:1;" d="M 30.171875 50.234375 L 30.171875 72.835938 C 30.171875 75.597656 36.03125 77.835938 43.257812 77.835938 C 50.484375 77.835938 56.34375 75.597656 56.34375 72.835938 L 56.34375 50.234375 Z M 30.171875 50.234375 "/>
<path style=" stroke:none;fill-rule:nonzero;fill:rgb(69.40918%,63.139343%,92.939758%);fill-opacity:1;" d="M 47.886719 50.234375 L 30.171875 50.234375 L 30.171875 72.835938 C 30.171875 75.597656 36.03125 77.835938 43.257812 77.835938 C 44.890625 77.835938 46.449219 77.722656 47.886719 77.515625 Z M 47.886719 50.234375 "/>
<path style=" stroke:none;fill-rule:nonzero;fill:rgb(67.449951%,63.919067%,95.289612%);fill-opacity:1;" d="M 56.410156 50.234375 C 56.410156 53 50.535156 55.238281 43.292969 55.238281 C 36.046875 55.238281 30.171875 53 30.171875 50.234375 C 30.171875 47.472656 36.046875 45.230469 43.292969 45.230469 C 50.535156 45.230469 56.410156 47.472656 56.410156 50.234375 Z M 56.410156 50.234375 "/>
<path style=" stroke:none;fill-rule:nonzero;fill:rgb(67.449951%,63.919067%,95.289612%);fill-opacity:1;" d="M 56.410156 65.414062 L 56.410156 73.421875 L 56.441406 73.421875 C 56.902344 76.027344 62.585938 78.085938 69.53125 78.085938 C 76.472656 78.085938 82.15625 76.027344 82.617188 73.421875 L 82.648438 73.421875 L 82.648438 65.414062 Z M 56.410156 65.414062 "/>
<path style=" stroke:none;fill-rule:nonzero;fill:rgb(67.449951%,63.919067%,95.289612%);fill-opacity:1;" d="M 74.828125 65.414062 L 74.828125 77.660156 C 79.175781 76.925781 82.28125 75.320312 82.617188 73.421875 L 82.648438 73.421875 L 82.648438 65.414062 Z M 74.828125 65.414062 "/>
<path style=" stroke:none;fill-rule:nonzero;fill:rgb(67.449951%,63.919067%,95.289612%);fill-opacity:1;" d="M 82.648438 65.414062 C 82.648438 68.179688 76.773438 70.417969 69.53125 70.417969 C 62.285156 70.417969 56.410156 68.179688 56.410156 65.414062 C 56.410156 62.652344 62.285156 60.410156 69.53125 60.410156 C 76.773438 60.410156 82.648438 62.652344 82.648438 65.414062 Z M 82.648438 65.414062 "/>
<g clip-path="url(#clip1)" clip-rule="nonzero">
<path style=" stroke:none;fill-rule:nonzero;fill:rgb(30.979919%,36.079407%,39.608765%);fill-opacity:1;" d="M 84.507812 65.414062 C 84.507812 64.164062 83.855469 61.816406 79.46875 60.144531 C 76.785156 59.121094 73.253906 58.558594 69.53125 58.558594 C 65.804688 58.558594 62.273438 59.121094 59.589844 60.144531 C 59.105469 60.332031 58.667969 60.523438 58.269531 60.722656 L 58.269531 50.234375 C 58.269531 48.984375 57.617188 46.636719 53.234375 44.964844 C 50.546875 43.941406 47.015625 43.378906 43.292969 43.378906 C 39.566406 43.378906 36.035156 43.941406 33.351562 44.964844 C 28.96875 46.636719 28.3125 48.984375 28.3125 50.234375 L 28.3125 73.109375 L 28.320312 73.109375 C 28.410156 74.402344 29.242188 76.5625 33.351562 78.132812 C 36.035156 79.15625 39.566406 79.71875 43.292969 79.71875 C 47.015625 79.71875 50.546875 79.15625 53.234375 78.132812 C 54.5625 77.625 55.550781 77.054688 56.277344 76.472656 C 57.027344 77.128906 58.089844 77.777344 59.589844 78.351562 C 62.273438 79.375 65.804688 79.9375 69.53125 79.9375 C 73.253906 79.9375 76.785156 79.375 79.46875 78.351562 C 83.480469 76.820312 84.371094 74.726562 84.492188 73.421875 L 84.507812 73.421875 L 84.507812 65.84375 L 84.480469 65.84375 C 84.5 65.691406 84.507812 65.546875 84.507812 65.414062 Z M 34.679688 48.429688 C 36.917969 47.574219 40.058594 47.085938 43.292969 47.085938 C 46.527344 47.085938 49.664062 47.574219 51.902344 48.429688 C 54.078125 49.257812 54.550781 50.078125 54.550781 50.234375 C 54.550781 50.394531 54.078125 51.210938 51.902344 52.042969 C 49.664062 52.894531 46.527344 53.382812 43.292969 53.382812 C 40.058594 53.382812 36.917969 52.894531 34.679688 52.042969 C 32.503906 51.210938 32.03125 50.394531 32.03125 50.234375 C 32.03125 50.078125 32.503906 49.257812 34.679688 48.429688 Z M 32.03125 54.925781 C 32.429688 55.125 32.867188 55.320312 33.351562 55.503906 C 36.035156 56.527344 39.566406 57.09375 43.292969 57.09375 C 47.015625 57.09375 50.546875 56.527344 53.234375 55.503906 C 53.71875 55.320312 54.152344 55.125 54.550781 54.925781 L 54.550781 57.902344 C 54.550781 58.058594 54.078125 58.878906 51.902344 59.707031 C 49.664062 60.5625 46.527344 61.050781 43.292969 61.050781 C 40.058594 61.050781 36.917969 60.5625 34.679688 59.707031 C 32.503906 58.878906 32.03125 58.058594 32.03125 57.902344 Z M 32.03125 62.59375 C 32.429688 62.792969 32.867188 62.984375 33.351562 63.171875 C 36.035156 64.195312 39.566406 64.757812 43.292969 64.757812 C 47.015625 64.757812 50.546875 64.195312 53.234375 63.171875 C 53.71875 62.984375 54.152344 62.792969 54.550781 62.59375 L 54.550781 65.207031 C 54.550781 65.363281 54.078125 66.183594 51.902344 67.011719 C 49.664062 67.867188 46.527344 68.355469 43.292969 68.355469 C 40.058594 68.355469 36.917969 67.867188 34.679688 67.011719 C 32.503906 66.183594 32.03125 65.363281 32.03125 65.207031 Z M 51.902344 74.667969 C 49.664062 75.523438 46.527344 76.011719 43.292969 76.011719 C 40.058594 76.011719 36.917969 75.523438 34.679688 74.667969 C 32.503906 73.839844 32.03125 73.019531 32.03125 72.863281 L 32.03125 69.898438 C 32.429688 70.097656 32.867188 70.292969 33.351562 70.476562 C 36.035156 71.5 39.566406 72.0625 43.292969 72.0625 C 47.015625 72.0625 50.546875 71.5 53.234375 70.476562 C 53.71875 70.292969 54.152344 70.097656 54.550781 69.898438 L 54.550781 72.863281 C 54.550781 73.019531 54.078125 73.839844 51.902344 74.667969 Z M 80.789062 73.082031 C 80.789062 73.238281 80.316406 74.058594 78.140625 74.886719 C 75.902344 75.742188 72.765625 76.230469 69.53125 76.230469 C 66.292969 76.230469 63.15625 75.742188 60.917969 74.886719 C 58.742188 74.058594 58.269531 73.238281 58.269531 73.082031 L 58.269531 70.105469 C 58.667969 70.304688 59.105469 70.5 59.589844 70.683594 C 62.273438 71.707031 65.804688 72.273438 69.53125 72.273438 C 73.253906 72.273438 76.785156 71.707031 79.46875 70.683594 C 79.953125 70.5 80.390625 70.304688 80.789062 70.105469 Z M 78.140625 67.222656 C 75.902344 68.074219 72.765625 68.5625 69.53125 68.5625 C 66.292969 68.5625 63.15625 68.074219 60.917969 67.222656 C 58.742188 66.390625 58.269531 65.574219 58.269531 65.414062 C 58.269531 65.257812 58.742188 64.4375 60.917969 63.609375 C 63.15625 62.753906 66.292969 62.265625 69.53125 62.265625 C 72.765625 62.265625 75.902344 62.753906 78.140625 63.609375 C 80.316406 64.4375 80.789062 65.257812 80.789062 65.414062 C 80.789062 65.574219 80.316406 66.390625 78.140625 67.222656 Z M 78.140625 67.222656 "/>
</g>
<g clip-path="url(#clip2)" clip-rule="nonzero">
<path style=" stroke:none;fill-rule:nonzero;fill:rgb(30.979919%,36.079407%,39.608765%);fill-opacity:1;" d="M 41.433594 32.691406 L 45.152344 32.691406 L 45.152344 39.808594 L 41.433594 39.808594 Z M 41.433594 32.691406 "/>
</g>
<path style=" stroke:none;fill-rule:nonzero;fill:rgb(30.979919%,36.079407%,39.608765%);fill-opacity:1;" d="M 35.773438 41.382812 L 32.933594 34.851562 L 36.34375 33.375 L 39.1875 39.90625 Z M 35.773438 41.382812 "/>
<path style=" stroke:none;fill-rule:nonzero;fill:rgb(30.979919%,36.079407%,39.608765%);fill-opacity:1;" d="M 47.398438 39.90625 L 50.238281 33.378906 L 53.652344 34.851562 L 50.808594 41.382812 Z M 47.398438 39.90625 "/>
</g>
</svg>
