<?xml version="1.0" encoding="UTF-8"?>
<svg xmlns="http://www.w3.org/2000/svg" xmlns:xlink="http://www.w3.org/1999/xlink" width="56.25pt" height="56.249997pt" viewBox="0 0 56.25 56.249997" version="1.2">
<defs>
<clipPath id="clip1">
  <path d="M 17 17.253906 L 38.921875 17.253906 L 38.921875 37.714844 L 17 37.714844 Z M 17 17.253906 "/>
</clipPath>
</defs>
<g id="surface1">
<g clip-path="url(#clip1)" clip-rule="nonzero">
<path style=" stroke:none;fill-rule:nonzero;fill:rgb(16.079712%,71.369934%,96.469116%);fill-opacity:1;" d="M 27.882812 17.253906 C 27.1875 17.253906 26.5 17.320312 25.816406 17.449219 C 25.132812 17.582031 24.472656 17.773438 23.828125 18.03125 C 23.1875 18.289062 22.578125 18.601562 22 18.972656 C 21.421875 19.347656 20.886719 19.769531 20.394531 20.242188 C 19.902344 20.71875 19.464844 21.234375 19.078125 21.789062 C 18.691406 22.347656 18.363281 22.933594 18.097656 23.554688 C 17.832031 24.171875 17.632812 24.8125 17.496094 25.46875 C 17.359375 26.125 17.292969 26.789062 17.292969 27.460938 C 17.292969 28.128906 17.359375 28.792969 17.496094 29.449219 C 17.632812 30.109375 17.832031 30.746094 18.097656 31.363281 C 18.363281 31.984375 18.691406 32.570312 19.078125 33.128906 C 19.464844 33.6875 19.902344 34.203125 20.394531 34.675781 C 20.886719 35.148438 21.421875 35.574219 22 35.945312 C 22.578125 36.316406 23.1875 36.632812 23.828125 36.886719 C 24.472656 37.144531 25.132812 37.335938 25.816406 37.46875 C 26.5 37.597656 27.1875 37.664062 27.882812 37.664062 C 28.578125 37.664062 29.265625 37.597656 29.949219 37.46875 C 30.628906 37.335938 31.292969 37.144531 31.933594 36.886719 C 32.578125 36.632812 33.1875 36.316406 33.765625 35.945312 C 34.34375 35.574219 34.878906 35.148438 35.371094 34.675781 C 35.863281 34.203125 36.300781 33.6875 36.6875 33.128906 C 37.074219 32.570312 37.398438 31.984375 37.664062 31.363281 C 37.933594 30.746094 38.132812 30.109375 38.269531 29.449219 C 38.402344 28.792969 38.472656 28.128906 38.472656 27.460938 C 38.472656 26.789062 38.402344 26.125 38.269531 25.46875 C 38.132812 24.8125 37.933594 24.171875 37.664062 23.554688 C 37.398438 22.933594 37.074219 22.347656 36.6875 21.789062 C 36.300781 21.234375 35.863281 20.71875 35.371094 20.242188 C 34.878906 19.769531 34.34375 19.347656 33.765625 18.972656 C 33.1875 18.601562 32.578125 18.289062 31.933594 18.03125 C 31.292969 17.773438 30.628906 17.582031 29.949219 17.449219 C 29.265625 17.320312 28.578125 17.253906 27.882812 17.253906 Z M 27.882812 17.253906 "/>
</g>
<path style=" stroke:none;fill-rule:nonzero;fill:rgb(100%,100%,100%);fill-opacity:1;" d="M 33.152344 22.867188 L 31.167969 32.625 C 31.167969 32.625 31.082031 33.074219 30.507812 33.074219 C 30.203125 33.074219 30.046875 32.933594 30.046875 32.933594 L 25.75 29.496094 L 23.648438 28.476562 L 20.949219 27.785156 C 20.949219 27.785156 20.46875 27.652344 20.46875 27.269531 C 20.46875 26.949219 20.964844 26.796875 20.964844 26.796875 L 32.25 22.476562 C 32.25 22.476562 32.59375 22.355469 32.847656 22.355469 C 33 22.355469 33.175781 22.421875 33.175781 22.613281 C 33.175781 22.738281 33.152344 22.867188 33.152344 22.867188 Z M 33.152344 22.867188 "/>
<path style=" stroke:none;fill-rule:nonzero;fill:rgb(69.018555%,74.508667%,77.249146%);fill-opacity:1;" d="M 27.351562 30.777344 L 25.539062 32.5 C 25.539062 32.5 25.460938 32.558594 25.355469 32.5625 C 25.316406 32.5625 25.277344 32.558594 25.238281 32.539062 L 25.75 29.496094 Z M 27.351562 30.777344 "/>
<path style=" stroke:none;fill-rule:nonzero;fill:rgb(81.17981%,84.709167%,86.268616%);fill-opacity:1;" d="M 31.003906 24.5 C 30.914062 24.386719 30.75 24.367188 30.632812 24.449219 L 23.648438 28.480469 C 23.648438 28.480469 24.761719 31.488281 24.929688 32.007812 C 25.101562 32.527344 25.238281 32.539062 25.238281 32.539062 L 25.75 29.496094 L 30.953125 24.855469 C 31.070312 24.769531 31.09375 24.609375 31.003906 24.5 Z M 31.003906 24.5 "/>
</g>
</svg>
