<?xml version="1.0" encoding="UTF-8"?>
<svg xmlns="http://www.w3.org/2000/svg" xmlns:xlink="http://www.w3.org/1999/xlink" width="112.5pt" height="112.499997pt" viewBox="0 0 112.5 112.499997" version="1.2">
<defs>
<clipPath id="clip1">
  <path d="M 57 39.117188 L 84.453125 39.117188 L 84.453125 68 L 57 68 Z M 57 39.117188 "/>
</clipPath>
<clipPath id="clip2">
  <path d="M 28.203125 39.117188 L 56 39.117188 L 56 68 L 28.203125 68 Z M 28.203125 39.117188 "/>
</clipPath>
<clipPath id="clip3">
  <path d="M 42 43 L 71 43 L 71 73.617188 L 42 73.617188 Z M 42 43 "/>
</clipPath>
<clipPath id="clip4">
  <path d="M 52.675781 46.105469 L 60.175781 46.105469 L 60.175781 58.105469 L 52.675781 58.105469 Z M 52.675781 46.105469 "/>
</clipPath>
<clipPath id="clip5">
  <path d="M 39.324219 43.910156 L 44.574219 43.910156 L 44.574219 52.160156 L 39.324219 52.160156 Z M 39.324219 43.910156 "/>
</clipPath>
<clipPath id="clip6">
  <path d="M 68.804688 43.910156 L 74.054688 43.910156 L 74.054688 52.160156 L 68.804688 52.160156 Z M 68.804688 43.910156 "/>
</clipPath>
</defs>
<g id="surface1">
<g clip-path="url(#clip1)" clip-rule="nonzero">
<path style=" stroke:none;fill-rule:nonzero;fill:rgb(30.979919%,36.079407%,39.608765%);fill-opacity:1;" d="M 84.394531 64.117188 C 84.300781 61.597656 82.90625 59.3125 80.617188 57.625 C 79.558594 56.847656 78.3125 56.195312 76.914062 55.710938 C 78.960938 53.988281 80.265625 51.402344 80.265625 48.511719 C 80.265625 43.324219 76.078125 39.121094 70.910156 39.121094 C 65.746094 39.121094 61.558594 43.324219 61.558594 48.511719 C 61.558594 51.402344 62.863281 53.988281 64.910156 55.710938 C 63.511719 56.195312 62.265625 56.847656 61.207031 57.625 C 58.917969 59.3125 57.527344 61.597656 57.429688 64.117188 C 57.398438 65 57.492188 65.746094 57.699219 66.378906 C 61.195312 67.246094 65.828125 67.777344 70.910156 67.777344 C 76.007812 67.777344 80.648438 67.246094 84.152344 66.375 C 84.339844 65.738281 84.425781 64.996094 84.394531 64.117188 "/>
</g>
<g clip-path="url(#clip2)" clip-rule="nonzero">
<path style=" stroke:none;fill-rule:nonzero;fill:rgb(30.979919%,36.079407%,39.608765%);fill-opacity:1;" d="M 55.246094 64.117188 C 55.152344 61.597656 53.757812 59.3125 51.46875 57.625 C 50.410156 56.847656 49.164062 56.195312 47.761719 55.710938 C 49.8125 53.988281 51.113281 51.402344 51.113281 48.511719 C 51.113281 43.324219 46.925781 39.121094 41.761719 39.121094 C 36.597656 39.121094 32.410156 43.324219 32.410156 48.511719 C 32.410156 51.402344 33.714844 53.988281 35.761719 55.710938 C 34.363281 56.195312 33.117188 56.847656 32.058594 57.625 C 29.769531 59.3125 28.378906 61.597656 28.28125 64.117188 C 28.246094 65 28.34375 65.746094 28.550781 66.378906 C 32.046875 67.246094 36.679688 67.777344 41.761719 67.777344 C 46.859375 67.777344 51.5 67.246094 55.003906 66.375 C 55.191406 65.738281 55.277344 64.996094 55.246094 64.117188 "/>
</g>
<g clip-path="url(#clip3)" clip-rule="nonzero">
<path style=" stroke:none;fill-rule:nonzero;fill:rgb(67.449951%,63.919067%,95.289612%);fill-opacity:1;" d="M 70.667969 69.738281 C 70.570312 67.0625 69.089844 64.632812 66.65625 62.839844 C 65.53125 62.011719 64.203125 61.320312 62.714844 60.800781 C 64.894531 58.972656 66.277344 56.222656 66.277344 53.148438 C 66.277344 47.636719 61.828125 43.167969 56.335938 43.167969 C 50.847656 43.167969 46.394531 47.636719 46.394531 53.148438 C 46.394531 56.222656 47.78125 58.972656 49.957031 60.800781 C 48.46875 61.320312 47.144531 62.011719 46.023438 62.839844 C 43.589844 64.632812 42.109375 67.0625 42.007812 69.738281 C 41.96875 70.679688 42.074219 71.472656 42.292969 72.144531 C 46.011719 73.066406 50.933594 73.628906 56.335938 73.628906 C 61.753906 73.628906 66.6875 73.0625 70.410156 72.136719 C 70.609375 71.464844 70.703125 70.675781 70.667969 69.738281 "/>
</g>
<g clip-path="url(#clip4)" clip-rule="nonzero">
<path style=" stroke:none;fill-rule:nonzero;fill:rgb(36.859131%,30.198669%,92.939758%);fill-opacity:1;" d="M 55.863281 58.035156 L 56.960938 58.035156 C 57.207031 58.035156 57.414062 57.839844 57.414062 57.601562 L 57.414062 56.59375 L 57.648438 56.535156 C 59.503906 56.085938 60.175781 54.855469 60.175781 53.941406 C 60.175781 52.246094 58.65625 51.542969 57.164062 51.082031 C 55.761719 50.632812 55.324219 50.367188 55.324219 49.972656 C 55.324219 49.625 55.746094 49.257812 56.710938 49.257812 C 57.765625 49.257812 58.4375 49.554688 58.714844 49.679688 C 58.773438 49.707031 58.847656 49.722656 58.90625 49.722656 C 59.078125 49.722656 59.242188 49.625 59.3125 49.46875 L 59.753906 48.585938 C 59.8125 48.488281 59.8125 48.363281 59.765625 48.25 C 59.722656 48.136719 59.636719 48.054688 59.53125 47.996094 C 59.007812 47.757812 58.4375 47.605469 57.792969 47.535156 L 57.53125 47.507812 L 57.53125 46.609375 C 57.53125 46.371094 57.324219 46.175781 57.078125 46.175781 L 55.996094 46.175781 C 55.746094 46.175781 55.542969 46.371094 55.542969 46.609375 L 55.542969 47.589844 L 55.308594 47.648438 C 53.789062 48.011719 52.894531 48.9375 52.894531 50.113281 C 52.894531 51.671875 54.503906 52.371094 56.082031 52.847656 C 57.542969 53.296875 57.734375 53.703125 57.734375 54.027344 C 57.734375 54.53125 57.046875 54.894531 56.113281 54.894531 C 55.308594 54.894531 54.460938 54.699219 53.816406 54.375 C 53.742188 54.347656 53.671875 54.320312 53.597656 54.320312 C 53.554688 54.320312 53.496094 54.335938 53.453125 54.347656 C 53.335938 54.390625 53.230469 54.476562 53.1875 54.585938 L 52.765625 55.484375 C 52.675781 55.695312 52.75 55.933594 52.953125 56.046875 C 53.480469 56.339844 54.285156 56.5625 55.117188 56.648438 L 55.394531 56.675781 L 55.394531 57.601562 C 55.394531 57.839844 55.601562 58.035156 55.863281 58.035156 Z M 55.863281 58.035156 "/>
</g>
<g clip-path="url(#clip5)" clip-rule="nonzero">
<path style=" stroke:none;fill-rule:nonzero;fill:rgb(36.859131%,30.198669%,92.939758%);fill-opacity:1;" d="M 41.554688 52.117188 L 42.324219 52.117188 C 42.496094 52.117188 42.640625 51.984375 42.640625 51.820312 L 42.640625 51.125 L 42.804688 51.085938 C 44.101562 50.777344 44.574219 49.925781 44.574219 49.300781 C 44.574219 48.132812 43.507812 47.648438 42.464844 47.332031 C 41.484375 47.023438 41.175781 46.839844 41.175781 46.570312 C 41.175781 46.328125 41.472656 46.078125 42.148438 46.078125 C 42.886719 46.078125 43.355469 46.28125 43.550781 46.367188 C 43.589844 46.386719 43.644531 46.394531 43.683594 46.394531 C 43.804688 46.394531 43.917969 46.328125 43.96875 46.222656 L 44.277344 45.613281 C 44.316406 45.546875 44.316406 45.460938 44.289062 45.382812 C 44.257812 45.304688 44.195312 45.246094 44.125 45.207031 C 43.753906 45.042969 43.355469 44.9375 42.90625 44.890625 L 42.722656 44.871094 L 42.722656 44.253906 C 42.722656 44.089844 42.578125 43.953125 42.402344 43.953125 L 41.648438 43.953125 C 41.472656 43.953125 41.328125 44.089844 41.328125 44.253906 L 41.328125 44.929688 L 41.164062 44.96875 C 40.101562 45.21875 39.476562 45.855469 39.476562 46.664062 C 39.476562 47.738281 40.601562 48.21875 41.707031 48.546875 C 42.730469 48.855469 42.863281 49.136719 42.863281 49.359375 C 42.863281 49.707031 42.382812 49.957031 41.730469 49.957031 C 41.164062 49.957031 40.574219 49.820312 40.121094 49.597656 C 40.070312 49.578125 40.019531 49.5625 39.96875 49.5625 C 39.9375 49.5625 39.898438 49.570312 39.867188 49.578125 C 39.785156 49.609375 39.710938 49.667969 39.683594 49.742188 L 39.386719 50.363281 C 39.324219 50.507812 39.375 50.671875 39.519531 50.746094 C 39.886719 50.949219 40.449219 51.105469 41.03125 51.164062 L 41.226562 51.183594 L 41.226562 51.820312 C 41.226562 51.984375 41.371094 52.117188 41.554688 52.117188 Z M 41.554688 52.117188 "/>
</g>
<g clip-path="url(#clip6)" clip-rule="nonzero">
<path style=" stroke:none;fill-rule:nonzero;fill:rgb(36.859131%,30.198669%,92.939758%);fill-opacity:1;" d="M 71.035156 52.117188 L 71.804688 52.117188 C 71.976562 52.117188 72.121094 51.984375 72.121094 51.820312 L 72.121094 51.125 L 72.285156 51.085938 C 73.585938 50.777344 74.054688 49.925781 74.054688 49.300781 C 74.054688 48.132812 72.992188 47.648438 71.945312 47.332031 C 70.964844 47.023438 70.65625 46.839844 70.65625 46.570312 C 70.65625 46.328125 70.953125 46.078125 71.628906 46.078125 C 72.367188 46.078125 72.835938 46.28125 73.03125 46.367188 C 73.074219 46.386719 73.125 46.394531 73.164062 46.394531 C 73.289062 46.394531 73.398438 46.328125 73.449219 46.222656 L 73.757812 45.613281 C 73.800781 45.546875 73.800781 45.460938 73.769531 45.382812 C 73.738281 45.304688 73.675781 45.246094 73.605469 45.207031 C 73.234375 45.042969 72.835938 44.9375 72.386719 44.890625 L 72.203125 44.871094 L 72.203125 44.253906 C 72.203125 44.089844 72.058594 43.953125 71.886719 43.953125 L 71.128906 43.953125 C 70.953125 43.953125 70.8125 44.089844 70.8125 44.253906 L 70.8125 44.929688 L 70.648438 44.96875 C 69.582031 45.21875 68.957031 45.855469 68.957031 46.664062 C 68.957031 47.738281 70.085938 48.21875 71.1875 48.546875 C 72.210938 48.855469 72.347656 49.136719 72.347656 49.359375 C 72.347656 49.707031 71.863281 49.957031 71.210938 49.957031 C 70.648438 49.957031 70.054688 49.820312 69.601562 49.597656 C 69.550781 49.578125 69.5 49.5625 69.449219 49.5625 C 69.417969 49.5625 69.378906 49.570312 69.347656 49.578125 C 69.265625 49.609375 69.195312 49.667969 69.164062 49.742188 L 68.867188 50.363281 C 68.804688 50.507812 68.855469 50.671875 69 50.746094 C 69.367188 50.949219 69.929688 51.105469 70.515625 51.164062 L 70.707031 51.183594 L 70.707031 51.820312 C 70.707031 51.984375 70.851562 52.117188 71.035156 52.117188 Z M 71.035156 52.117188 "/>
</g>
</g>
</svg>
