<?xml version="1.0" encoding="UTF-8"?>
<svg xmlns="http://www.w3.org/2000/svg" xmlns:xlink="http://www.w3.org/1999/xlink" width="112.5pt" height="112.499997pt" viewBox="0 0 112.5 112.499997" version="1.2">
<defs>
<clipPath id="clip1">
  <path d="M 51 28.125 L 82 28.125 L 82 66 L 51 66 Z M 51 28.125 "/>
</clipPath>
<clipPath id="clip2">
  <path d="M 28.125 56 L 43 56 L 43 80 L 28.125 80 Z M 28.125 56 "/>
</clipPath>
<clipPath id="clip3">
  <path d="M 35 68 L 84.375 68 L 84.375 84.375 L 35 84.375 Z M 35 68 "/>
</clipPath>
</defs>
<g id="surface1">
<path style=" stroke:none;fill-rule:nonzero;fill:rgb(67.449951%,63.919067%,95.289612%);fill-opacity:1;" d="M 80.292969 36.035156 C 80.292969 35.371094 79.875 34.777344 79.25 34.554688 L 67.171875 30.203125 C 66.828125 30.078125 66.449219 30.078125 66.105469 30.203125 L 54.027344 34.554688 C 53.398438 34.777344 52.984375 35.371094 52.984375 36.035156 L 52.984375 45.828125 C 52.984375 57.589844 65.460938 63.34375 65.992188 63.582031 C 66.195312 63.671875 66.417969 63.71875 66.636719 63.71875 C 66.859375 63.71875 67.078125 63.671875 67.285156 63.582031 C 67.816406 63.34375 80.292969 57.589844 80.292969 45.828125 Z M 80.292969 36.035156 "/>
<path style=" stroke:none;fill-rule:nonzero;fill:rgb(67.449951%,63.919067%,95.289612%);fill-opacity:1;" d="M 36.128906 77.375 L 30.929688 77.375 C 30.148438 77.375 29.511719 76.738281 29.511719 75.957031 L 29.511719 59.886719 C 29.511719 59.105469 30.148438 58.464844 30.929688 58.464844 C 37.554688 58.464844 40.644531 60.765625 40.769531 60.863281 C 41.226562 61.214844 41.429688 61.804688 41.277344 62.363281 L 37.496094 76.324219 C 37.328125 76.945312 36.769531 77.375 36.128906 77.375 Z M 36.128906 77.375 "/>
<path style=" stroke:none;fill-rule:nonzero;fill:rgb(100%,79.998779%,50.19989%);fill-opacity:1;" d="M 77.660156 69.746094 C 73.6875 69.746094 65.738281 74.527344 61.765625 74.527344 C 57.792969 74.527344 53.316406 71.636719 53.316406 71.636719 C 53.316406 71.636719 58.671875 72.582031 61.765625 72.582031 C 64.855469 72.582031 65.738281 71.578125 65.738281 70.214844 C 65.738281 66.910156 59.832031 66.394531 56.84375 65.960938 C 53.910156 64.40625 45.953125 62.582031 41.09375 62.191406 C 41.066406 62.460938 41.023438 62.726562 40.941406 62.996094 L 36.953125 76.382812 C 41.472656 78.339844 55.695312 82.03125 59.78125 82.03125 C 65.742188 82.03125 81.640625 74.472656 81.640625 72.582031 C 81.636719 70.691406 79.648438 69.746094 77.660156 69.746094 Z M 77.660156 69.746094 "/>
<g clip-path="url(#clip1)" clip-rule="nonzero">
<path style=" stroke:none;fill-rule:nonzero;fill:rgb(30.979919%,36.079407%,39.608765%);fill-opacity:1;" d="M 66.636719 65.585938 C 66.394531 65.585938 66.148438 65.535156 65.917969 65.433594 C 65.328125 65.167969 51.464844 58.777344 51.464844 45.707031 L 51.464844 34.828125 C 51.464844 34.089844 51.929688 33.429688 52.625 33.179688 L 66.046875 28.347656 C 66.425781 28.207031 66.847656 28.207031 67.230469 28.347656 L 80.652344 33.179688 C 81.347656 33.429688 81.808594 34.089844 81.808594 34.828125 L 81.808594 45.707031 C 81.808594 58.777344 67.945312 65.167969 67.355469 65.429688 C 67.128906 65.535156 66.882812 65.585938 66.636719 65.585938 Z M 54.96875 36.058594 L 54.96875 45.707031 C 54.96875 54.960938 63.988281 60.460938 66.636719 61.878906 C 69.285156 60.464844 78.308594 54.960938 78.308594 45.707031 L 78.308594 36.058594 L 66.636719 31.855469 Z M 54.96875 36.058594 "/>
</g>
<path style=" stroke:none;fill-rule:nonzero;fill:rgb(30.979919%,36.079407%,39.608765%);fill-opacity:1;" d="M 67.523438 53.917969 L 62.554688 53.917969 C 61.585938 53.917969 60.800781 53.132812 60.800781 52.167969 C 60.800781 51.199219 61.585938 50.417969 62.554688 50.417969 L 67.523438 50.417969 C 68.324219 50.417969 68.972656 49.765625 68.972656 48.96875 C 68.972656 48.148438 68.324219 47.5 67.523438 47.5 L 65.75 47.5 C 63.023438 47.5 60.800781 45.277344 60.800781 42.550781 C 60.800781 39.800781 63.023438 37.578125 65.75 37.578125 L 70.722656 37.578125 C 71.6875 37.578125 72.472656 38.363281 72.472656 39.328125 C 72.472656 40.296875 71.6875 41.082031 70.722656 41.082031 L 65.75 41.082031 C 64.953125 41.082031 64.304688 41.730469 64.304688 42.527344 C 64.304688 43.347656 64.953125 43.996094 65.75 43.996094 L 67.523438 43.996094 C 70.253906 43.996094 72.472656 46.21875 72.472656 48.945312 C 72.472656 51.699219 70.253906 53.917969 67.523438 53.917969 Z M 67.523438 53.917969 "/>
<path style=" stroke:none;fill-rule:nonzero;fill:rgb(30.979919%,36.079407%,39.608765%);fill-opacity:1;" d="M 66.636719 41.082031 C 65.671875 41.082031 64.886719 40.296875 64.886719 39.328125 L 64.886719 35.828125 C 64.886719 34.863281 65.671875 34.078125 66.636719 34.078125 C 67.605469 34.078125 68.386719 34.863281 68.386719 35.828125 L 68.386719 39.328125 C 68.386719 40.296875 67.605469 41.082031 66.636719 41.082031 Z M 66.636719 41.082031 "/>
<path style=" stroke:none;fill-rule:nonzero;fill:rgb(30.979919%,36.079407%,39.608765%);fill-opacity:1;" d="M 66.636719 57.417969 C 65.671875 57.417969 64.886719 56.632812 64.886719 55.667969 L 64.886719 52.167969 C 64.886719 51.199219 65.671875 50.417969 66.636719 50.417969 C 67.605469 50.417969 68.386719 51.199219 68.386719 52.167969 L 68.386719 55.667969 C 68.386719 56.632812 67.605469 57.417969 66.636719 57.417969 Z M 66.636719 57.417969 "/>
<g clip-path="url(#clip2)" clip-rule="nonzero">
<path style=" stroke:none;fill-rule:nonzero;fill:rgb(30.979919%,36.079407%,39.608765%);fill-opacity:1;" d="M 36.296875 79.589844 L 29.875 79.589844 C 28.910156 79.589844 28.125 78.808594 28.125 77.839844 L 28.125 58 C 28.125 57.035156 28.910156 56.25 29.875 56.25 C 38.058594 56.25 41.867188 59.09375 42.027344 59.214844 C 42.589844 59.644531 42.839844 60.375 42.652344 61.0625 L 37.984375 78.300781 C 37.78125 79.0625 37.085938 79.589844 36.296875 79.589844 Z M 31.628906 76.089844 L 34.957031 76.089844 L 38.917969 61.453125 C 37.699219 60.878906 35.3125 60.019531 31.628906 59.804688 Z M 31.628906 76.089844 "/>
</g>
<g clip-path="url(#clip3)" clip-rule="nonzero">
<path style=" stroke:none;fill-rule:nonzero;fill:rgb(30.979919%,36.079407%,39.608765%);fill-opacity:1;" d="M 58.46875 84.257812 C 52.847656 84.257812 42.105469 79.589844 36.203125 76.8125 C 35.328125 76.398438 34.953125 75.355469 35.367188 74.484375 C 35.777344 73.609375 36.820312 73.226562 37.695312 73.644531 C 47.289062 78.164062 54.859375 80.757812 58.46875 80.757812 C 63.203125 80.757812 73.949219 75.648438 79.578125 72.695312 C 78.929688 72.324219 77.964844 72.007812 76.558594 72.007812 C 74.507812 72.007812 71.972656 72.847656 69.523438 73.667969 C 66.808594 74.574219 64.003906 75.507812 61.386719 75.507812 C 56.46875 75.507812 49.976562 73.167969 49.703125 73.066406 C 48.792969 72.738281 48.324219 71.734375 48.652344 70.824219 C 48.988281 69.917969 49.992188 69.453125 50.898438 69.777344 C 50.957031 69.800781 57.085938 72.007812 61.386719 72.007812 C 63.433594 72.007812 65.96875 71.164062 68.417969 70.34375 C 71.132812 69.4375 73.9375 68.503906 76.558594 68.503906 C 82.34375 68.503906 83.953125 72.359375 84.015625 72.523438 C 84.347656 73.347656 84.011719 74.28125 83.238281 74.707031 C 82.53125 75.097656 65.835938 84.257812 58.46875 84.257812 Z M 58.46875 84.257812 "/>
</g>
<path style=" stroke:none;fill-rule:nonzero;fill:rgb(30.979919%,36.079407%,39.608765%);fill-opacity:1;" d="M 66.636719 74.550781 C 65.671875 74.550781 64.886719 73.765625 64.886719 72.800781 L 64.886719 71.75 C 64.886719 70.371094 63.90625 69.167969 62.554688 68.886719 L 40.074219 64.289062 C 39.128906 64.097656 38.515625 63.171875 38.710938 62.222656 C 38.90625 61.277344 39.832031 60.664062 40.777344 60.859375 L 63.253906 65.460938 C 66.230469 66.066406 68.386719 68.710938 68.386719 71.746094 L 68.386719 72.796875 C 68.386719 73.765625 67.605469 74.550781 66.636719 74.550781 Z M 66.636719 74.550781 "/>
</g>
</svg>
