<?xml version="1.0" encoding="UTF-8"?>
<svg xmlns="http://www.w3.org/2000/svg" xmlns:xlink="http://www.w3.org/1999/xlink" width="56.25pt" height="56.249997pt" viewBox="0 0 56.25 56.249997" version="1.2">
<defs>
<clipPath id="clip1">
  <path d="M 16.640625 16.652344 L 38.820312 16.652344 L 38.820312 38.855469 L 16.640625 38.855469 Z M 16.640625 16.652344 "/>
</clipPath>
<clipPath id="clip2">
  <path d="M 17 18 L 38.820312 18 L 38.820312 38.855469 L 17 38.855469 Z M 17 18 "/>
</clipPath>
<clipPath id="clip3">
  <path d="M 16.640625 16.652344 L 33 16.652344 L 33 38.855469 L 16.640625 38.855469 Z M 16.640625 16.652344 "/>
</clipPath>
</defs>
<g id="surface1">
<g clip-path="url(#clip1)" clip-rule="nonzero">
<path style=" stroke:none;fill-rule:nonzero;fill:rgb(94.509888%,30.198669%,12.159729%);fill-opacity:1;" d="M 38.746094 27.730469 C 38.746094 33.847656 33.796875 38.808594 27.691406 38.808594 C 21.585938 38.808594 16.636719 33.847656 16.636719 27.730469 C 16.636719 21.613281 21.585938 16.652344 27.691406 16.652344 C 33.796875 16.652344 38.746094 21.613281 38.746094 27.730469 "/>
</g>
<g clip-path="url(#clip2)" clip-rule="nonzero">
<path style=" stroke:none;fill-rule:nonzero;fill:rgb(95.289612%,36.079407%,25.489807%);fill-opacity:1;" d="M 34.363281 18.890625 C 34.898438 20.191406 35.195312 21.617188 35.195312 23.113281 C 35.195312 29.230469 30.246094 34.191406 24.140625 34.191406 C 21.667969 34.191406 19.386719 33.375 17.542969 32 C 19.199219 36.023438 23.152344 38.855469 27.765625 38.855469 C 33.871094 38.855469 38.820312 33.894531 38.820312 27.777344 C 38.820312 24.136719 37.066406 20.910156 34.363281 18.890625 "/>
</g>
<path style=" stroke:none;fill-rule:nonzero;fill:rgb(93.728638%,21.179199%,15.689087%);fill-opacity:1;" d="M 35.433594 26.535156 C 35.433594 25.296875 34.375 24.289062 33.066406 24.289062 C 32.195312 24.289062 31.433594 24.738281 31.023438 25.402344 C 30.175781 24.992188 29.210938 24.746094 28.1875 24.714844 L 28.1875 21.824219 L 29.253906 21.769531 C 29.398438 22.617188 30.136719 23.265625 31.027344 23.265625 C 32.019531 23.265625 32.828125 22.457031 32.828125 21.460938 C 32.828125 20.464844 32.019531 19.660156 31.027344 19.660156 C 30.09375 19.660156 29.324219 20.371094 29.234375 21.285156 L 27.9375 21.355469 C 27.808594 21.363281 27.707031 21.46875 27.707031 21.597656 L 27.707031 24.714844 C 26.714844 24.75 25.777344 24.984375 24.945312 25.378906 C 24.53125 24.726562 23.777344 24.289062 22.914062 24.289062 C 21.605469 24.289062 20.546875 25.296875 20.546875 26.535156 C 20.546875 27.414062 21.078125 28.171875 21.851562 28.542969 C 21.585938 29.183594 21.441406 29.878906 21.441406 30.605469 C 21.441406 33.859375 24.359375 36.5 27.960938 36.5 C 31.558594 36.5 34.476562 33.859375 34.476562 30.605469 C 34.476562 29.890625 34.335938 29.203125 34.074219 28.566406 C 34.878906 28.207031 35.433594 27.433594 35.433594 26.535156 "/>
<path style=" stroke:none;fill-rule:nonzero;fill:rgb(100%,100%,100%);fill-opacity:1;" d="M 33.789062 29.980469 C 33.789062 33.117188 30.976562 35.664062 27.503906 35.664062 C 24.035156 35.664062 21.222656 33.117188 21.222656 29.980469 C 21.222656 26.839844 24.035156 24.296875 27.503906 24.296875 C 30.976562 24.296875 33.789062 26.839844 33.789062 29.980469 "/>
<path style=" stroke:none;fill-rule:nonzero;fill:rgb(100%,100%,100%);fill-opacity:1;" d="M 24.925781 26.054688 C 24.925781 27.25 23.902344 28.21875 22.640625 28.21875 C 21.378906 28.21875 20.359375 27.25 20.359375 26.054688 C 20.359375 24.859375 21.378906 23.890625 22.640625 23.890625 C 23.902344 23.890625 24.925781 24.859375 24.925781 26.054688 "/>
<path style=" stroke:none;fill-rule:nonzero;fill:rgb(100%,100%,100%);fill-opacity:1;" d="M 34.714844 26.054688 C 34.714844 27.25 33.691406 28.21875 32.429688 28.21875 C 31.167969 28.21875 30.148438 27.25 30.148438 26.054688 C 30.148438 24.859375 31.167969 23.890625 32.429688 23.890625 C 33.691406 23.890625 34.714844 24.859375 34.714844 26.054688 "/>
<path style=" stroke:none;fill-rule:nonzero;fill:rgb(94.509888%,30.198669%,12.159729%);fill-opacity:1;" d="M 30.59375 31.886719 C 30.363281 32.355469 29.949219 32.765625 29.410156 33.058594 C 28.875 33.351562 28.21875 33.527344 27.507812 33.527344 C 26.785156 33.527344 26.117188 33.347656 25.574219 33.046875 C 25.035156 32.742188 24.621094 32.320312 24.394531 31.84375 C 24.34375 31.730469 24.207031 31.679688 24.09375 31.734375 C 23.980469 31.789062 23.929688 31.925781 23.984375 32.039062 C 24.257812 32.617188 24.742188 33.101562 25.355469 33.445312 C 25.96875 33.785156 26.707031 33.980469 27.507812 33.984375 C 28.292969 33.980469 29.023438 33.789062 29.628906 33.460938 C 30.234375 33.128906 30.71875 32.65625 31.003906 32.089844 C 31.058594 31.980469 31.011719 31.84375 30.902344 31.785156 C 30.789062 31.730469 30.652344 31.773438 30.59375 31.886719 "/>
<path style=" stroke:none;fill-rule:nonzero;fill:rgb(94.509888%,30.198669%,12.159729%);fill-opacity:1;" d="M 26.089844 28.84375 C 26.089844 29.613281 25.46875 30.238281 24.695312 30.238281 C 23.925781 30.238281 23.304688 29.613281 23.304688 28.84375 C 23.304688 28.070312 23.925781 27.445312 24.695312 27.445312 C 25.46875 27.445312 26.089844 28.070312 26.089844 28.84375 "/>
<path style=" stroke:none;fill-rule:nonzero;fill:rgb(94.509888%,30.198669%,12.159729%);fill-opacity:1;" d="M 31.855469 28.84375 C 31.855469 29.613281 31.230469 30.238281 30.460938 30.238281 C 29.691406 30.238281 29.070312 29.613281 29.070312 28.84375 C 29.070312 28.070312 29.691406 27.445312 30.460938 27.445312 C 31.230469 27.445312 31.855469 28.070312 31.855469 28.84375 "/>
<path style=" stroke:none;fill-rule:nonzero;fill:rgb(100%,100%,100%);fill-opacity:1;" d="M 27.496094 25.808594 C 27.367188 25.808594 27.261719 25.703125 27.261719 25.574219 L 27.261719 21.292969 C 27.261719 21.167969 27.359375 21.066406 27.480469 21.058594 L 29.875 20.929688 C 30.003906 20.921875 30.113281 21.023438 30.121094 21.152344 C 30.128906 21.277344 30.027344 21.386719 29.902344 21.394531 L 27.726562 21.511719 L 27.726562 25.574219 C 27.726562 25.703125 27.621094 25.808594 27.496094 25.808594 "/>
<path style=" stroke:none;fill-rule:nonzero;fill:rgb(100%,100%,100%);fill-opacity:1;" d="M 32.199219 21.164062 C 32.199219 22.125 31.421875 22.902344 30.460938 22.902344 C 29.503906 22.902344 28.726562 22.125 28.726562 21.164062 C 28.726562 20.203125 29.503906 19.421875 30.460938 19.421875 C 31.421875 19.421875 32.199219 20.203125 32.199219 21.164062 "/>
<g clip-path="url(#clip3)" clip-rule="nonzero">
<path style=" stroke:none;fill-rule:nonzero;fill:rgb(93.728638%,21.179199%,15.689087%);fill-opacity:1;" d="M 18.4375 28.375 C 18.4375 22.257812 23.386719 17.296875 29.492188 17.296875 C 30.460938 17.296875 31.402344 17.421875 32.296875 17.65625 C 30.894531 17.015625 29.335938 16.652344 27.691406 16.652344 C 21.585938 16.652344 16.636719 21.613281 16.636719 27.730469 C 16.636719 32.878906 20.140625 37.207031 24.890625 38.449219 C 21.082031 36.699219 18.4375 32.847656 18.4375 28.375 "/>
</g>
</g>
</svg>
