<?xml version="1.0" encoding="UTF-8"?>
<svg xmlns="http://www.w3.org/2000/svg" xmlns:xlink="http://www.w3.org/1999/xlink" width="56.25pt" height="56.249997pt" viewBox="0 0 56.25 56.249997" version="1.2">
<defs>
<clipPath id="clip1">
  <path d="M 16 31 L 30 31 L 30 48.960938 L 16 48.960938 Z M 16 31 "/>
</clipPath>
<clipPath id="clip2">
  <path d="M 5.550781 6.773438 L 49.957031 6.773438 L 49.957031 48.960938 L 5.550781 48.960938 Z M 5.550781 6.773438 "/>
</clipPath>
<clipPath id="clip3">
  <path d="M 16 7 L 49.957031 7 L 49.957031 48.960938 L 16 48.960938 Z M 16 7 "/>
</clipPath>
</defs>
<g id="surface1">
<g clip-path="url(#clip1)" clip-rule="nonzero">
<path style=" stroke:none;fill-rule:nonzero;fill:rgb(0%,60.389709%,89.408875%);fill-opacity:1;" d="M 29.519531 39.90625 L 20.84375 48.648438 C 20.585938 48.804688 20.246094 49.199219 19.546875 48.988281 C 19.183594 48.859375 18.738281 48.4375 18.664062 47.964844 L 18.664062 47.941406 L 16.167969 32.867188 L 18.195312 31.320312 C 18.457031 31.472656 23.464844 34.441406 23.15625 34.261719 L 29.519531 38.039062 C 30.011719 38.566406 30.011719 39.378906 29.519531 39.90625 Z M 29.519531 39.90625 "/>
</g>
<g clip-path="url(#clip2)" clip-rule="nonzero">
<path style=" stroke:none;fill-rule:nonzero;fill:rgb(14.509583%,85.099792%,97.24884%);fill-opacity:1;" d="M 49.863281 8.433594 L 41.984375 47.992188 C 41.90625 48.414062 41.59375 48.78125 41.179688 48.9375 C 41.023438 49.015625 40.867188 49.042969 40.710938 49.042969 C 40.453125 49.042969 40.191406 48.964844 39.957031 48.804688 C 39.695312 48.617188 20.5625 34.796875 21.777344 35.675781 C 10.191406 29.875 16.234375 32.925781 6.292969 27.90625 C 5.824219 27.667969 5.566406 27.195312 5.566406 26.699219 C 5.589844 26.171875 5.875 25.726562 6.34375 25.515625 L 48.070312 6.960938 C 48.511719 6.777344 49.03125 6.832031 49.394531 7.144531 C 49.445312 7.199219 49.523438 7.277344 49.574219 7.328125 C 49.835938 7.644531 49.941406 8.039062 49.863281 8.433594 Z M 49.863281 8.433594 "/>
</g>
<g clip-path="url(#clip3)" clip-rule="nonzero">
<path style=" stroke:none;fill-rule:nonzero;fill:rgb(0%,75.289917%,94.509888%);fill-opacity:1;" d="M 49.574219 7.328125 L 23.15625 34.261719 L 21.777344 35.675781 L 19.546875 48.988281 C 19.183594 48.859375 18.738281 48.4375 18.664062 47.964844 L 18.664062 47.941406 L 16.167969 32.867188 L 18.195312 31.320312 Z M 49.574219 7.328125 "/>
</g>
</g>
</svg>
