<?xml version="1.0" encoding="UTF-8"?>
<svg xmlns="http://www.w3.org/2000/svg" xmlns:xlink="http://www.w3.org/1999/xlink" width="56.25pt" height="56.249997pt" viewBox="0 0 56.25 56.249997" version="1.2">
<defs>
<clipPath id="clip1">
  <path d="M 16.691406 16.691406 L 38.894531 16.691406 L 38.894531 38.894531 L 16.691406 38.894531 Z M 16.691406 16.691406 "/>
</clipPath>
</defs>
<g id="surface1">
<g clip-path="url(#clip1)" clip-rule="nonzero">
<path style=" stroke:none;fill-rule:nonzero;fill:rgb(10.5896%,61.569214%,94.119263%);fill-opacity:1;" d="M 38.976562 27.832031 C 38.976562 28.5625 38.902344 29.289062 38.761719 30.007812 C 38.617188 30.722656 38.40625 31.421875 38.128906 32.097656 C 37.847656 32.773438 37.503906 33.414062 37.097656 34.023438 C 36.691406 34.632812 36.230469 35.195312 35.710938 35.710938 C 35.195312 36.230469 34.632812 36.691406 34.023438 37.097656 C 33.414062 37.503906 32.773438 37.847656 32.097656 38.128906 C 31.421875 38.40625 30.722656 38.617188 30.007812 38.761719 C 29.289062 38.902344 28.5625 38.976562 27.832031 38.976562 C 27.101562 38.976562 26.375 38.902344 25.660156 38.761719 C 24.941406 38.617188 24.246094 38.40625 23.570312 38.128906 C 22.890625 37.847656 22.25 37.503906 21.640625 37.097656 C 21.035156 36.691406 20.472656 36.230469 19.953125 35.710938 C 19.4375 35.195312 18.972656 34.632812 18.566406 34.023438 C 18.160156 33.414062 17.816406 32.773438 17.539062 32.097656 C 17.257812 31.421875 17.046875 30.722656 16.902344 30.007812 C 16.761719 29.289062 16.691406 28.5625 16.691406 27.832031 C 16.691406 27.101562 16.761719 26.375 16.902344 25.660156 C 17.046875 24.941406 17.257812 24.246094 17.539062 23.570312 C 17.816406 22.890625 18.160156 22.25 18.566406 21.640625 C 18.972656 21.035156 19.4375 20.472656 19.953125 19.953125 C 20.472656 19.4375 21.035156 18.972656 21.640625 18.566406 C 22.25 18.160156 22.890625 17.816406 23.570312 17.539062 C 24.246094 17.257812 24.941406 17.046875 25.660156 16.902344 C 26.375 16.761719 27.101562 16.691406 27.832031 16.691406 C 28.5625 16.691406 29.289062 16.761719 30.007812 16.902344 C 30.722656 17.046875 31.421875 17.257812 32.097656 17.539062 C 32.773438 17.816406 33.414062 18.160156 34.023438 18.566406 C 34.632812 18.972656 35.195312 19.4375 35.710938 19.953125 C 36.230469 20.472656 36.691406 21.035156 37.097656 21.640625 C 37.503906 22.25 37.847656 22.890625 38.128906 23.570312 C 38.40625 24.246094 38.617188 24.941406 38.761719 25.660156 C 38.902344 26.375 38.976562 27.101562 38.976562 27.832031 Z M 38.976562 27.832031 "/>
</g>
<path style=" stroke:none;fill-rule:nonzero;fill:rgb(100%,100%,100%);fill-opacity:1;" d="M 25.792969 33.710938 C 30.734375 33.710938 33.4375 29.617188 33.4375 26.066406 C 33.4375 25.949219 33.4375 25.832031 33.433594 25.722656 C 33.957031 25.34375 34.414062 24.867188 34.773438 24.328125 C 34.296875 24.539062 33.777344 24.683594 33.230469 24.75 C 33.789062 24.417969 34.210938 23.894531 34.414062 23.265625 C 33.894531 23.570312 33.320312 23.792969 32.707031 23.914062 C 32.21875 23.390625 31.519531 23.070312 30.746094 23.070312 C 29.265625 23.070312 28.0625 24.273438 28.0625 25.753906 C 28.0625 25.964844 28.082031 26.171875 28.132812 26.367188 C 25.898438 26.257812 23.921875 25.1875 22.59375 23.558594 C 22.367188 23.953125 22.234375 24.417969 22.234375 24.90625 C 22.234375 25.839844 22.707031 26.664062 23.429688 27.140625 C 22.992188 27.128906 22.578125 27.007812 22.214844 26.808594 C 22.214844 26.820312 22.214844 26.828125 22.214844 26.839844 C 22.214844 28.144531 23.140625 29.226562 24.371094 29.476562 C 24.148438 29.539062 23.910156 29.570312 23.664062 29.570312 C 23.492188 29.570312 23.324219 29.554688 23.160156 29.519531 C 23.5 30.589844 24.488281 31.363281 25.664062 31.386719 C 24.746094 32.105469 23.585938 32.535156 22.328125 32.535156 C 22.109375 32.535156 21.898438 32.523438 21.6875 32.496094 C 22.863281 33.265625 24.277344 33.710938 25.792969 33.710938 "/>
</g>
</svg>
